<svg width="70" height="40" viewBox="0 0 70 40" fill="none" xmlns="http://www.w3.org/2000/svg">
<rect width="70" height="40" rx="4" fill="#E50914"/>
<path d="M26.9619 24.032V25.76H13.6179V24.032H19.2179V21.84H15.1539V16.848H23.3779V15.264H15.1379V13.584H25.4579V18.496H17.2499V20.144H25.7939V21.84H21.3299V24.032H26.9619ZM37.9126 15.68H29.7046V14H40.0246V15.744C40.0246 16.256 40.0193 16.7733 40.0086 17.296C40.0086 17.8187 39.9926 18.368 39.9606 18.944C39.9286 19.5093 39.8753 20.112 39.8006 20.752C39.726 21.392 39.6193 22.0907 39.4806 22.848L37.3846 22.656C37.5126 21.952 37.614 21.2907 37.6886 20.672C37.7633 20.0533 37.8166 19.4613 37.8486 18.896C37.8806 18.3307 37.8966 17.792 37.8966 17.28C37.9073 16.7573 37.9126 16.2453 37.9126 15.744V15.68ZM41.6566 23.728V25.456H28.3286V23.728H41.6566ZM55.2794 23.232H53.1514V12.656H55.2794V23.232ZM45.3114 17.328C45.3114 17.9253 45.498 18.3947 45.8714 18.736C46.2554 19.0667 46.7194 19.232 47.2634 19.232C47.818 19.232 48.2767 19.0667 48.6394 18.736C49.0127 18.3947 49.1994 17.9253 49.1994 17.328C49.1994 16.72 49.0127 16.2507 48.6394 15.92C48.2767 15.5787 47.818 15.408 47.2634 15.408C46.7194 15.408 46.2554 15.5787 45.8714 15.92C45.498 16.2507 45.3114 16.72 45.3114 17.328ZM51.2634 17.328C51.2634 17.8613 51.162 18.3573 50.9594 18.816C50.7567 19.2747 50.474 19.6693 50.1114 20C49.7487 20.3307 49.322 20.592 48.8314 20.784C48.3514 20.9653 47.8287 21.056 47.2634 21.056C46.698 21.056 46.17 20.9653 45.6794 20.784C45.1887 20.592 44.762 20.3307 44.3994 20C44.0474 19.6693 43.7647 19.2747 43.5514 18.816C43.3487 18.3573 43.2474 17.8613 43.2474 17.328C43.2474 16.784 43.3487 16.2827 43.5514 15.824C43.7647 15.3653 44.0474 14.9707 44.3994 14.64C44.762 14.3093 45.1887 14.0533 45.6794 13.872C46.17 13.68 46.698 13.584 47.2634 13.584C47.8287 13.584 48.3514 13.68 48.8314 13.872C49.322 14.0533 49.7487 14.3093 50.1114 14.64C50.474 14.9707 50.7567 15.3653 50.9594 15.824C51.162 16.2827 51.2634 16.784 51.2634 17.328ZM55.6474 25.44V27.12H45.4714V22.192H47.5834V25.44H55.6474Z" fill="white"/>
</svg>
