<svg width="113" height="40" viewBox="0 0 113 40" fill="none" xmlns="http://www.w3.org/2000/svg">
<rect x="0.5" y="0.5" width="112" height="39" rx="1.5" stroke="#757575"/>
<path d="M18.2859 28C19.5095 27.8258 20.5821 26.5462 21.257 24.6565C20.2813 24.4376 19.2857 24.3201 18.2859 24.3061V28Z" fill="#757575"/>
<path d="M20.2407 27.6995C20.313 27.6785 20.385 27.6573 20.4565 27.6341C20.5169 27.6147 20.5763 27.5937 20.6358 27.5728C20.7062 27.5485 20.7763 27.5235 20.8461 27.4969C20.9056 27.4742 20.9645 27.4501 21.0235 27.4261C21.0917 27.3974 21.1597 27.3689 21.227 27.3402C21.2858 27.3143 21.3441 27.2872 21.4025 27.2599C21.4685 27.2287 21.5343 27.1969 21.5995 27.1639C21.6567 27.1347 21.7138 27.1049 21.7711 27.0742C21.8352 27.0398 21.8988 27.0047 21.9621 26.9686C22.0193 26.9361 22.0745 26.9035 22.1302 26.87C22.1922 26.8318 22.2539 26.7936 22.3152 26.7554C22.3701 26.7204 22.4248 26.6849 22.4788 26.6482C22.5392 26.6075 22.5986 26.5651 22.6578 26.5227C22.711 26.4845 22.7639 26.4465 22.8159 26.4081C22.8731 26.3639 22.9318 26.3182 22.9892 26.2723C23.0401 26.2316 23.0909 26.1912 23.1411 26.1493C23.1982 26.1018 23.2529 26.0525 23.3083 26.0033C23.3569 25.96 23.4058 25.9172 23.4533 25.8729C23.5079 25.8218 23.5611 25.7689 23.6143 25.7165C23.6603 25.6709 23.707 25.6259 23.7521 25.5792C23.7604 25.5705 23.7684 25.5612 23.7771 25.5522C23.1534 25.2295 22.4964 24.9761 21.8177 24.7967C21.4648 25.9246 20.8366 26.9468 19.9902 27.7702C20.0134 27.7642 20.0365 27.7593 20.0597 27.7533C20.1209 27.7361 20.1809 27.7172 20.2407 27.6995Z" fill="#757575"/>
<path d="M26 20.2865H22.5714C22.5584 21.6279 22.3642 22.9613 21.9941 24.2505C22.7489 24.4526 23.4773 24.743 24.1642 25.1159C25.2921 23.7537 25.9377 22.0555 26 20.2865Z" fill="#757575"/>
<path d="M18.2859 19.7135H21.9995C21.985 18.4195 21.7955 17.1335 21.4365 15.8904C20.4025 16.1267 19.3464 16.2529 18.2859 16.2669V19.7135Z" fill="#757575"/>
<path d="M18.2859 12V15.6939C19.2857 15.6798 20.2813 15.5624 21.257 15.3434C20.5821 13.4537 19.5095 12.1742 18.2859 12Z" fill="#757575"/>
<path d="M18.2859 23.733C19.3464 23.7472 20.4025 23.8734 21.4365 24.1097C21.7955 22.8666 21.985 21.5805 21.9995 20.2865H18.2859V23.733Z" fill="#757575"/>
<path d="M24.1642 14.8841C23.4773 15.257 22.7489 15.5474 21.9941 15.7494C22.3642 17.0386 22.5584 18.3721 22.5714 19.7135H26C25.9376 17.9447 25.292 16.2464 24.1642 14.8841Z" fill="#757575"/>
<path d="M23.7779 14.4494C23.7695 14.4409 23.7616 14.4317 23.7533 14.4229C23.7081 14.3761 23.6612 14.3311 23.6151 14.2856C23.562 14.2331 23.5091 14.1801 23.4544 14.1292C23.4071 14.085 23.358 14.0432 23.3095 13.9991C23.254 13.9498 23.1986 13.9002 23.1416 13.8526C23.0922 13.8108 23.0415 13.7708 22.9913 13.7306C22.934 13.6842 22.8754 13.638 22.8164 13.5936C22.7648 13.5546 22.7124 13.5168 22.6598 13.4791C22.6 13.436 22.54 13.393 22.4791 13.352C22.4256 13.3159 22.3713 13.2807 22.317 13.2461C22.2552 13.2063 22.1934 13.1672 22.1305 13.1294C22.0753 13.0963 22.0196 13.0635 21.9638 13.0318C21.8998 12.9951 21.8357 12.9596 21.7711 12.9249C21.7138 12.8962 21.6567 12.865 21.5995 12.8363C21.5337 12.803 21.4674 12.771 21.3994 12.7395C21.3422 12.7123 21.2841 12.6857 21.2252 12.6598C21.1574 12.6297 21.089 12.6026 21.0208 12.5739C20.9618 12.5498 20.9032 12.526 20.8437 12.5034C20.7743 12.4768 20.7039 12.4519 20.6336 12.4275C20.5741 12.4066 20.5146 12.3857 20.4543 12.3661C20.3828 12.3429 20.3113 12.3218 20.2379 12.3005C20.1784 12.283 20.1186 12.2653 20.0585 12.2493C20.0354 12.243 20.012 12.2381 19.9888 12.2321C20.8352 13.0556 21.4632 14.0776 21.8163 15.2056C22.4957 15.0263 23.1536 14.7728 23.7779 14.4494Z" fill="#757575"/>
<path d="M10 19.7135H13.4286C13.4416 18.3721 13.6358 17.0386 14.0058 15.7494C13.2511 15.5475 12.5227 15.2571 11.8358 14.8841C10.7079 16.2462 10.0623 17.9447 10 19.7135Z" fill="#757575"/>
<path d="M17.7141 28V24.3061C16.7143 24.3202 15.7187 24.4376 14.743 24.6565C15.4178 26.5462 16.4905 27.8258 17.7141 28Z" fill="#757575"/>
<path d="M17.7141 20.2865H14.0005C14.015 21.5805 14.2043 22.8666 14.5634 24.1097C15.5975 23.8732 16.6535 23.747 17.7141 23.733V20.2865Z" fill="#757575"/>
<path d="M17.7141 12C16.4905 12.1742 15.4178 13.4537 14.743 15.3434C15.7187 15.5625 16.7143 15.6799 17.7141 15.6939V12Z" fill="#757575"/>
<path d="M17.7141 16.2669C16.6536 16.2529 15.5975 16.1267 14.5634 15.8904C14.2043 17.1335 14.015 18.4195 14.0005 19.7135H17.7141V16.2669Z" fill="#757575"/>
<path d="M16.009 12.2318C15.9858 12.2378 15.9626 12.2427 15.9394 12.2487C15.8788 12.265 15.8191 12.283 15.7588 12.3005C15.687 12.3215 15.6158 12.3426 15.5437 12.3656C15.483 12.3853 15.4233 12.4063 15.3635 12.4271C15.2935 12.4519 15.2234 12.4765 15.1542 12.5028C15.0944 12.5258 15.0355 12.5495 14.9763 12.5739C14.9083 12.6026 14.8402 12.6312 14.773 12.6598C14.7141 12.6857 14.6559 12.7128 14.5975 12.7401C14.5315 12.7713 14.4657 12.803 14.4005 12.8361C14.3433 12.8653 14.286 12.8952 14.2289 12.9257C14.1648 12.9602 14.1013 12.9954 14.0382 13.0315C13.9809 13.0635 13.9247 13.0964 13.8695 13.13C13.8074 13.1675 13.746 13.2063 13.6848 13.2446C13.6298 13.2798 13.5752 13.3154 13.5212 13.352C13.4608 13.3927 13.4014 13.4351 13.3422 13.4775C13.289 13.5157 13.2361 13.5538 13.184 13.5922C13.1255 13.6363 13.0696 13.6822 13.0107 13.728C12.9599 13.7687 12.9086 13.8091 12.8589 13.8512C12.8017 13.8985 12.7474 13.9475 12.6922 13.9964C12.6433 14.0401 12.5941 14.0825 12.5463 14.1277C12.492 14.1784 12.4391 14.2312 12.386 14.2835C12.3399 14.3291 12.293 14.3742 12.2478 14.421C12.2396 14.4297 12.2316 14.4392 12.2229 14.448C12.8465 14.7709 13.5036 15.0243 14.1823 15.2037C14.5352 14.0763 15.163 13.0549 16.009 12.2318Z" fill="#757575"/>
<path d="M12.3848 25.7144C12.438 25.7668 12.4909 25.8198 12.5455 25.8709C12.5929 25.915 12.6418 25.9568 12.6905 26.0009C12.746 26.0503 12.8014 26.0998 12.8584 26.1474C12.9078 26.1889 12.9582 26.2291 13.0087 26.2694C13.066 26.3158 13.1231 26.362 13.1837 26.4066C13.2352 26.4454 13.2876 26.4829 13.3399 26.5213C13.3997 26.5643 13.46 26.6072 13.5209 26.6485C13.5744 26.6846 13.6287 26.7199 13.683 26.7545C13.7448 26.7943 13.8066 26.8333 13.8695 26.8711C13.9247 26.9044 13.9804 26.937 14.0362 26.9689C14.1002 27.0055 14.1643 27.0411 14.2289 27.0756C14.286 27.1043 14.3433 27.1355 14.4005 27.1642C14.4663 27.1975 14.5326 27.2295 14.6006 27.2611C14.6578 27.2881 14.7159 27.3147 14.7748 27.3407C14.8426 27.3708 14.9108 27.398 14.9792 27.4266C15.0382 27.4507 15.0968 27.4745 15.1563 27.4972C15.2257 27.5239 15.2961 27.5488 15.3664 27.5731C15.4259 27.594 15.4854 27.615 15.5457 27.6344C15.6172 27.6576 15.6887 27.6789 15.7621 27.7C15.8216 27.7175 15.8814 27.7353 15.9414 27.7514C15.9646 27.7577 15.988 27.7626 16.0112 27.7686C15.1648 26.945 14.5368 25.923 14.1837 24.7949C13.505 24.9744 12.8479 25.2278 12.2243 25.5508C12.2327 25.5593 12.2407 25.5686 12.2491 25.5774C12.2919 25.6238 12.3381 25.6689 12.3848 25.7144Z" fill="#757575"/>
<path d="M11.8358 25.1159C12.5227 24.743 13.2511 24.4526 14.0058 24.2505C13.6358 22.9613 13.4416 21.6279 13.4286 20.2865H10C10.0624 22.0553 10.7079 23.7536 11.8358 25.1159Z" fill="#757575"/>
<path d="M43.36 16.148H34.896V15.092H38.464V13.348H39.776V15.092H43.36V16.148ZM36.944 19.604C36.944 20.116 37.1413 20.5213 37.536 20.82C37.9307 21.108 38.4587 21.252 39.12 21.252C39.7707 21.252 40.2987 21.108 40.704 20.82C41.1093 20.5213 41.312 20.116 41.312 19.604C41.312 19.1027 41.1093 18.708 40.704 18.42C40.2987 18.1213 39.7707 17.972 39.12 17.972C38.4587 17.972 37.9307 18.1213 37.536 18.42C37.1413 18.708 36.944 19.1027 36.944 19.604ZM42.56 19.604C42.56 20.0093 42.4747 20.3773 42.304 20.708C42.144 21.0387 41.9093 21.3213 41.6 21.556C41.3013 21.78 40.9387 21.956 40.512 22.084C40.096 22.212 39.632 22.276 39.12 22.276C38.608 22.276 38.144 22.212 37.728 22.084C37.312 21.956 36.9493 21.78 36.64 21.556C36.3413 21.3213 36.1067 21.0387 35.936 20.708C35.776 20.3773 35.696 20.0093 35.696 19.604C35.696 19.2093 35.776 18.8467 35.936 18.516C36.1067 18.1853 36.3413 17.908 36.64 17.684C36.9493 17.4493 37.312 17.268 37.728 17.14C38.144 17.012 38.608 16.948 39.12 16.948C39.632 16.948 40.096 17.012 40.512 17.14C40.9387 17.268 41.3013 17.4493 41.6 17.684C41.9093 17.908 42.144 18.1853 42.304 18.516C42.4747 18.8467 42.56 19.2093 42.56 19.604ZM38.368 26.292H46.624V27.364H37.056V23.252H38.368V26.292ZM48.112 18.068V19.172H45.984V24.1H44.672V13.348H45.984V18.068H48.112ZM56.7188 20.212V22.836H60.9908V27.668H59.6788V23.892H50.9428V22.836H55.4068V20.212H49.5668V19.14H59.2308C59.4228 18.276 59.5348 17.5187 59.5668 16.868C59.5988 16.2173 59.6148 15.62 59.6148 15.076H51.2308V14.02H60.9108V15.06C60.9108 15.604 60.8948 16.2067 60.8628 16.868C60.8414 17.5293 60.7401 18.2867 60.5588 19.14H62.5908V20.212H56.7188ZM68.1255 23.284C68.4668 23.284 68.7762 23.1933 69.0535 23.012C69.3415 22.8307 69.5868 22.5747 69.7895 22.244C70.0028 21.9027 70.1628 21.4973 70.2695 21.028C70.3868 20.5587 70.4455 20.0307 70.4455 19.444C70.4455 18.868 70.3868 18.3453 70.2695 17.876C70.1628 17.396 70.0028 16.9907 69.7895 16.66C69.5868 16.3293 69.3415 16.0733 69.0535 15.892C68.7762 15.7107 68.4668 15.62 68.1255 15.62C67.7842 15.62 67.4695 15.7107 67.1815 15.892C66.8935 16.0733 66.6428 16.3293 66.4295 16.66C66.2268 16.9907 66.0668 17.396 65.9495 17.876C65.8428 18.3453 65.7895 18.868 65.7895 19.444C65.7895 20.0307 65.8428 20.5587 65.9495 21.028C66.0668 21.4973 66.2268 21.9027 66.4295 22.244C66.6428 22.5747 66.8935 22.8307 67.1815 23.012C67.4695 23.1933 67.7842 23.284 68.1255 23.284ZM76.1095 13.332V27.716H74.7975V19.876H71.6775C71.6455 20.58 71.5335 21.2147 71.3415 21.78C71.1602 22.3453 70.9148 22.8253 70.6055 23.22C70.2962 23.6147 69.9282 23.9187 69.5015 24.132C69.0855 24.3453 68.6268 24.452 68.1255 24.452C67.6028 24.452 67.1228 24.3347 66.6855 24.1C66.2482 23.8653 65.8695 23.5293 65.5495 23.092C65.2295 22.6547 64.9788 22.132 64.7975 21.524C64.6268 20.9053 64.5415 20.212 64.5415 19.444C64.5415 18.676 64.6268 17.988 64.7975 17.38C64.9788 16.7613 65.2295 16.2333 65.5495 15.796C65.8695 15.3587 66.2482 15.0227 66.6855 14.788C67.1228 14.5533 67.6028 14.436 68.1255 14.436C68.6055 14.436 69.0482 14.5373 69.4535 14.74C69.8695 14.9427 70.2322 15.236 70.5415 15.62C70.8615 15.9933 71.1175 16.452 71.3095 16.996C71.5015 17.5293 71.6242 18.132 71.6775 18.804H74.7975V13.332H76.1095Z" fill="#757575"/>
<path d="M94.247 23.14L89.451 17.658C88.885 17.013 89.345 16 90.204 16H99.796C99.9883 15.9998 100.176 16.0551 100.338 16.1591C100.5 16.2632 100.628 16.4116 100.707 16.5867C100.787 16.7617 100.814 16.956 100.786 17.1462C100.758 17.3364 100.676 17.5144 100.549 17.659L95.753 23.139C95.6591 23.2464 95.5434 23.3325 95.4135 23.3915C95.2836 23.4505 95.1427 23.481 95 23.481C94.8574 23.481 94.7164 23.4505 94.5865 23.3915C94.4566 23.3325 94.3409 23.2464 94.247 23.139V23.14Z" fill="#757575"/>
</svg>
