<svg width="0" height="0" fill="none" style="visibility: hidden; position: absolute;" aria-hidden="true">
    <symbol id="Logo" width="210" height="57" viewBox="0 0 210 57" fill="none" xmlns="http://www.w3.org/2000/svg">
        <path d="M198.306 26.9419L198.231 27.1244L198.3 27.3092L209.234 56.3824C207.439 56.1145 205.648 55.8165 203.841 55.5159C202.693 55.325 201.539 55.133 200.373 54.947L194.149 38.7115L193.709 37.5622L193.223 38.6931L186.875 53.4749C185.069 53.1881 183.258 53.004 181.46 52.8212C180.43 52.7164 179.405 52.6122 178.387 52.4892L189.53 26.9772L189.612 26.7887L189.538 26.5968L179.454 0.5H187.961L193.631 15.1416L194.081 16.3042L194.559 15.1526L200.639 0.5H209.252L198.306 26.9419ZM131.515 49.5037V0.5H139.381V41.5617V42.0501L139.869 42.0616C143.11 42.1376 146.338 42.3333 149.532 42.5269C151.184 42.627 152.827 42.7266 154.458 42.8088V50.6454C146.871 50.1364 139.273 49.6874 131.515 49.5037ZM121.054 20.7466V28.6527H109.436H108.936V29.1527V48.8993H101.185V0.5H125.016V8.40608H109.436H108.936V8.90608V20.2466V20.7466H109.436H121.054ZM85.7857 8.40608H85.2857V8.90608V49.3748C82.6672 49.3751 80.0016 49.3806 77.4175 49.4729V8.90608V8.40608H76.9175H68.2533V0.5H94.5085V8.40608H85.7857ZM57.6758 21.2217V29.1264C53.889 29.1267 49.5105 29.1339 46.3245 29.307L45.8516 29.3327V29.8063V43.047V43.5825L46.3859 43.5458C47.3831 43.4772 48.3796 43.4065 49.3758 43.3359C53.4139 43.0496 57.4488 42.7636 61.5185 42.614V50.1843L37.9835 52.0651V0.5H61.5185V8.40608H46.3516H45.8516V8.90608V20.8984V21.3984H46.3516C48.0727 21.3984 50.251 21.3537 52.3852 21.3092L52.5258 21.3063C54.394 21.2674 56.2193 21.2293 57.6758 21.2217ZM9.51908 24.4797L8.54547 24.64V55.3052C5.72549 55.6293 3.16712 55.9987 0.5 56.4154V0.5H8.10231L19.512 32.5278L20.483 32.36V0.5H28.3512V52.8933C26.937 53.121 25.5061 53.2818 24.0395 53.4373C23.8208 53.4604 23.6013 53.4835 23.3809 53.5066C22.1135 53.6398 20.8185 53.7758 19.4961 53.9535L9.51908 24.4797ZM170.658 0.5V51.8645C168.556 51.6279 166.427 51.5053 164.356 51.3861C163.89 51.3592 163.427 51.3325 162.967 51.3048V0.5H170.658Z" stroke="white"/>
    </symbol>
    <symbol id="type=Red,-outline=false" width="210" height="57" viewBox="0 0 210 57" fill="none" xmlns="http://www.w3.org/2000/svg">
        <path d="M198.768 27.1332L210 57C206.689 56.5245 203.38 55.9297 200.009 55.3954L193.682 38.8904L187.18 54.0313C183.988 53.497 180.853 53.3172 177.661 52.9022L189.072 26.777L178.725 0H188.304L194.097 14.961L200.306 0H210L198.768 27.1332ZM171.158 0H162.467V51.775C165.305 51.953 168.261 52.0706 171.158 52.4268V0ZM154.958 51.1801C147.036 50.6459 139.113 50.1722 131.015 49.9923V0H139.881V41.5617C144.967 41.681 150.051 42.096 154.958 42.3328V51.1801ZM121.554 20.2466V29.1527H109.436V49.3993H100.685V0H125.516V8.90608H109.436V20.2466H121.554ZM85.7857 8.90608V49.8748C82.8296 49.8748 79.8151 49.8748 76.9175 49.9923V8.90608H67.7533V0H95.0085V8.90608H85.7857ZM58.1758 29.6264C54.2746 29.6264 49.6623 29.6264 46.3516 29.8063V43.047C51.5544 42.689 56.7572 42.2741 62.0185 42.096V50.6459L37.4835 52.6066V0H62.0185V8.90608H46.3516V20.8984C49.7811 20.8984 55.0424 20.7203 58.1758 20.7203V29.6264ZM9.04547 24.64V55.7516C5.85358 56.1096 3.01457 56.5245 0 57V0H8.45497L19.983 32.36V0H28.8512V53.3172C25.7178 53.8532 22.5259 54.0313 19.1549 54.505L9.04547 24.64Z" fill="#E50914"/>
    </symbol>
    <symbol id="type=Red,-outline=true" width="210" height="57" viewBox="0 0 210 57" fill="none" xmlns="http://www.w3.org/2000/svg">
        <path d="M198.306 26.9419L198.231 27.1244L198.3 27.3092L209.234 56.3824C207.439 56.1145 205.648 55.8165 203.841 55.5159C202.693 55.325 201.539 55.133 200.373 54.947L194.149 38.7115L193.709 37.5622L193.223 38.6931L186.875 53.4749C185.069 53.1881 183.258 53.004 181.46 52.8212C180.43 52.7164 179.405 52.6122 178.387 52.4892L189.53 26.9772L189.612 26.7887L189.538 26.5968L179.454 0.5H187.961L193.631 15.1416L194.081 16.3042L194.559 15.1526L200.639 0.5H209.252L198.306 26.9419ZM131.515 49.5037V0.5H139.381V41.5617V42.0501L139.869 42.0616C143.11 42.1376 146.338 42.3333 149.532 42.5269C151.184 42.627 152.827 42.7266 154.458 42.8088V50.6454C146.871 50.1364 139.273 49.6874 131.515 49.5037ZM121.054 20.7466V28.6527H109.436H108.936V29.1527V48.8993H101.185V0.5H125.016V8.40608H109.436H108.936V8.90608V20.2466V20.7466H109.436H121.054ZM85.7857 8.40608H85.2857V8.90608V49.3748C82.6672 49.3751 80.0016 49.3806 77.4175 49.4729V8.90608V8.40608H76.9175H68.2533V0.5H94.5085V8.40608H85.7857ZM57.6758 21.2217V29.1264C53.889 29.1267 49.5105 29.1339 46.3245 29.307L45.8516 29.3327V29.8063V43.047V43.5825L46.3859 43.5458C47.3831 43.4772 48.3796 43.4065 49.3758 43.3359C53.4139 43.0496 57.4488 42.7636 61.5185 42.614V50.1843L37.9835 52.0651V0.5H61.5185V8.40608H46.3516H45.8516V8.90608V20.8984V21.3984H46.3516C48.0727 21.3984 50.251 21.3537 52.3852 21.3092L52.5258 21.3063C54.394 21.2674 56.2193 21.2293 57.6758 21.2217ZM9.51908 24.4797L8.54547 24.64V55.3052C5.72549 55.6293 3.16712 55.9987 0.5 56.4154V0.5H8.10231L19.512 32.5278L20.483 32.36V0.5H28.3512V52.8933C26.937 53.121 25.5061 53.2818 24.0395 53.4373C23.8208 53.4604 23.6013 53.4835 23.3809 53.5066C22.1135 53.6398 20.8185 53.7758 19.4961 53.9535L9.51908 24.4797ZM170.658 0.5V51.8645C168.556 51.6279 166.427 51.5053 164.356 51.3861C163.89 51.3592 163.427 51.3325 162.967 51.3048V0.5H170.658Z" stroke="#E50914"/>
    </symbol>
    <symbol id="type=White,-outline=false" width="210" height="57" viewBox="0 0 210 57" fill="none" xmlns="http://www.w3.org/2000/svg">
        <path d="M198.768 27.1332L210 57C206.689 56.5245 203.38 55.9297 200.009 55.3954L193.682 38.8904L187.18 54.0313C183.988 53.497 180.853 53.3172 177.661 52.9022L189.072 26.777L178.725 0H188.304L194.097 14.961L200.306 0H210L198.768 27.1332ZM171.158 0H162.467V51.775C165.305 51.953 168.261 52.0706 171.158 52.4268V0ZM154.958 51.1801C147.036 50.6459 139.113 50.1722 131.015 49.9923V0H139.881V41.5617C144.967 41.681 150.051 42.096 154.958 42.3328V51.1801ZM121.554 20.2466V29.1527H109.436V49.3993H100.685V0H125.516V8.90608H109.436V20.2466H121.554ZM85.7857 8.90608V49.8748C82.8296 49.8748 79.8151 49.8748 76.9175 49.9923V8.90608H67.7533V0H95.0085V8.90608H85.7857ZM58.1758 29.6264C54.2746 29.6264 49.6623 29.6264 46.3516 29.8063V43.047C51.5544 42.689 56.7572 42.2741 62.0185 42.096V50.6459L37.4835 52.6066V0H62.0185V8.90608H46.3516V20.8984C49.7811 20.8984 55.0424 20.7203 58.1758 20.7203V29.6264ZM9.04547 24.64V55.7516C5.85358 56.1096 3.01457 56.5245 0 57V0H8.45497L19.983 32.36V0H28.8512V53.3172C25.7178 53.8532 22.5259 54.0313 19.1549 54.505L9.04547 24.64Z" fill="white"/>
    </symbol>
</svg>